# xmcd
#
# Track frame offsets:
#	150
#	17458
#	41948
#	65103
#	86814
#	112590
#	128865
#	156467
#	177934
#	207921
#
# Disc length: 3038 seconds
#
# Revision: 2
# Processed by: cddbd v1.5.2PL0 Copyright (c) Steve Scherf et al.
# Submitted via: EZCDAudioConverter 8.0.2.1
#
DISCID=880bdc0a
DTITLE=Various Artist - Sầu Đông
DYEAR=2007
DGENRE=World Pop
TTITLE0=Hùng Cường, Đoàn Phi - Sầu Đông
TTITLE1=Thanh Lan, Doanh Doanh - Tình yêu ơi tình yêu, Búp bê không tình yêu
TTITLE2=Don Hồ and Lâm Thúy Vân - Ngày vui năm ấy
TTITLE3=THùy Hương, Lê Nguyên, Chosen - Đừng hỏi vì sao
TTITLE4=Y Phương, Nguyên Khang - Tình phụ
TTITLE5=Don Hồ, Dạ Nhật Yến - Đi với tôi, Ghé bến Sài Gòn
TTITLE6=Lệ Thu, Diễm Liên - Xin còn gọi tên nhau, Ghé bến Sài Gòn
TTITLE7=Anh Khoa, Dalena - Dư âm
TTITLE8=Sĩ Phú, Quốc Khanh - Niệm khúc cuối
TTITLE9=Phương Thảo, Ngọc Lễ, bé Na, Bé Nấm - Ba ngọn nến lung linh
EXTD=
EXTT0=
EXTT1=
EXTT2=
EXTT3=
EXTT4=
EXTT5=
EXTT6=
EXTT7=
EXTT8=
EXTT9=
PLAYORDER=
